<svg xmlns="http://www.w3.org/2000/svg" width="32" height="32" enable-background="new 0 0 32 32" viewBox="0 0 32 32" id="reddit"><path fill="#263238" d="M16.105,11.077c-0.055,0-0.11-0.008-0.166-0.026c-0.289-0.092-0.45-0.401-0.358-0.69l2.084-6.585
		c0.088-0.273,0.367-0.436,0.65-0.369l5.668,1.334c0.296,0.069,0.479,0.366,0.409,0.661c-0.069,0.295-0.364,0.481-0.661,0.409
		L18.56,4.594l-1.93,6.099C16.556,10.927,16.339,11.077,16.105,11.077z"></path><path fill="#263238" d="M26.171 8.518c-1.535 0-2.784-1.249-2.784-2.784s1.249-2.784 2.784-2.784 2.784 1.249 2.784 2.784S27.706 8.518 26.171 8.518zM26.171 4.05c-.929 0-1.685.756-1.685 1.685s.756 1.684 1.685 1.684 1.685-.755 1.685-1.684S27.1 4.05 26.171 4.05zM15.938 28.05c-7.382 0-13.388-4.005-13.388-8.928 0-2.319 1.313-4.512 3.699-6.176.247-.173.591-.114.766.137.174.249.112.592-.137.766C4.797 15.3 3.65 17.173 3.65 19.122c0 4.316 5.513 7.828 12.288 7.828s12.287-3.512 12.287-7.828-5.512-7.828-12.287-7.828c-1.892 0-3.707.269-5.396.799-.288.09-.599-.07-.689-.36-.092-.29.07-.598.359-.689 1.796-.563 3.722-.849 5.726-.849 7.382 0 13.387 4.005 13.387 8.928S23.32 28.05 15.938 28.05z"></path><path fill="#263238" d="M11.491 15.397c-1.152.013-2.084.944-2.097 2.097 0 1.14.957 2.065 2.097 2.065 1.141 0 2.065-.925 2.065-2.065S12.632 15.397 11.491 15.397zM20.54 15.397c-1.153.012-2.086.944-2.1 2.097 0 1.141.959 2.065 2.1 2.065s2.065-.925 2.065-2.065C22.605 16.353 21.681 15.397 20.54 15.397L20.54 15.397zM16.016 24.862c-.013 0-.021 0-.032 0-2.229 0-3.802-.489-4.807-1.494-.215-.214-.215-.563 0-.777.215-.215.563-.215.777 0 .789.789 2.106 1.172 4.029 1.172.011 0 .02 0 .032 0 1.923 0 3.241-.384 4.03-1.172.215-.215.563-.214.777 0s.215.563 0 .778C19.817 24.374 18.244 24.862 16.016 24.862z"></path><circle cx="8.499" cy="12.5" r=".5" fill="#263238"></circle><g><path fill="#263238" d="M2.124 15.224c0-1.259 1.024-2.284 2.284-2.284.686 0 1.294.31 1.713.789.283-.219.585-.427.901-.627-.621-.763-1.556-1.262-2.614-1.262-1.866 0-3.384 1.518-3.384 3.384 0 1.424.887 2.64 2.135 3.139.051-.37.142-.732.265-1.086C2.657 16.907 2.124 16.13 2.124 15.224zM30.976 15.224c0-1.866-1.518-3.384-3.384-3.384-1.082 0-2.035.519-2.655 1.311.314.202.615.412.896.634.419-.512 1.048-.845 1.759-.845 1.26 0 2.284 1.025 2.284 2.284 0 .947-.579 1.761-1.402 2.107.117.349.198.706.246 1.069C30.029 17.934 30.976 16.693 30.976 15.224z"></path></g></svg>