<svg xmlns="http://www.w3.org/2000/svg" width="24" height="24" viewBox="0 0 24 24" id="vr"><path d="M20 18V8a1 1 0 0 1 2 0v11a1 1 0 0 1-1 1h-6a1 1 0 0 1-.707-.293l-1-1A1 1 0 0 1 13 18a1 1 0 0 0-2 0 1 1 0 0 1-.293.707l-1 1A1 1 0 0 1 9 20H3a1 1 0 0 1-1-1V8a1 1 0 0 1 1-1h15a1 1 0 0 1 0 2H4v9h4.586l.447-.447a3 3 0 0 1 5.934 0l.447.447H20zM7.5 15a2.5 2.5 0 1 1 0-5 2.5 2.5 0 0 1 0 5zm0-2a.5.5 0 1 0 0-1 .5.5 0 0 0 0 1zm9 2a2.5 2.5 0 1 1 0-5 2.5 2.5 0 0 1 0 5zm0-2a.5.5 0 1 0 0-1 .5.5 0 0 0 0 1zM6 6a1 1 0 1 1 0-2h12a1 1 0 0 1 0 2H6z"></path></svg>